<svg width="300" height="300" viewBox="0 0 300 300" fill="none" xmlns="http://www.w3.org/2000/svg">
<g clip-path="url(#clip0_1_2)">
<rect width="300" height="300" fill="black"/>
<path d="M117.339 90.44C89.7785 90.44 82.4985 128.66 79.8985 160.12V90.44H77.8185L53.3785 96.16C53.3785 96.16 53.3785 97.46 53.3785 97.98C58.5785 98.76 59.3585 101.36 59.3585 110.46V198.34C59.3585 207.44 57.5385 211.34 53.3785 213.68C53.3785 214.2 53.3785 215.5 53.3785 215.5H85.6185C85.6185 215.5 85.6185 214.2 85.6185 213.68C81.7185 211.34 79.8985 207.44 79.8985 198.34V188.2C79.8985 166.1 83.2785 99.02 108.759 95.12C122.799 93.04 130.079 112.28 130.599 127.1L132.419 128.14L148.279 105.78C139.439 95.38 131.379 90.44 117.339 90.44ZM201.119 90.44C172.779 90.44 163.419 105.78 161.339 122.68C155.099 173.64 245.839 158.56 240.899 192.62C239.339 203.8 225.299 213.42 206.579 213.42C183.439 213.42 163.939 191.84 155.099 173.64H153.799L148.339 199.64C162.379 210.04 177.979 217.06 199.039 217.06C228.159 217.06 247.399 201.72 248.959 181.18C251.819 138.8 164.199 148.16 167.839 113.32C169.139 102.66 179.019 92.78 196.699 92.78C211.519 92.78 228.159 108.9 236.219 131H237.519L242.719 107.08C232.319 99.02 214.639 90.44 201.119 90.44Z" fill="white"/>
</g>
<defs>
<clipPath id="clip0_1_2">
<rect width="300" height="300" fill="white"/>
</clipPath>
</defs>
</svg>
